<svg class="icon" viewBox="0 0 1024 1024" xmlns="http://www.w3.org/2000/svg" width="16" height="16"><path d="M512 0a512 512 0 1 1 0 1024A512 512 0 0 1 512 0zm3.413 197.234a30.436 30.436 0 0 0-30.15 30.15l-2.959 254.237-257.024.285A30.436 30.436 0 0 0 195.129 512c0 16.384 13.653 30.037 30.094 30.037l257.024-.284-.284 257.024c0 16.384 13.653 30.037 30.037 30.037 16.44 0 30.151-13.653 30.151-30.15l.228-256.968 257.024-.284c16.384 0 30.094-13.654 30.15-30.095-2.787-8.192-5.517-16.384-10.979-21.845a29.468 29.468 0 0 0-19.114-8.192l-257.024.284.284-257.024a29.468 29.468 0 0 0-8.192-19.114 29.468 29.468 0 0 0-19.115-8.192z" fill="#1789EB"/></svg>