<!-- Generated by IcoMoon.io -->
<svg version="1.1" xmlns="http://www.w3.org/2000/svg" width="32" height="32" viewBox="0 0 32 32">
<title>icon-test</title>
<path d="M2.581 2.528c-0.698 0-1.264-0.566-1.264-1.264s0.566-1.264 1.264-1.264h26.838c0.698 0 1.264 0.566 1.264 1.264s-0.566 1.264-1.264 1.264h-26.838zM17.139 30.736c0 0.698-0.566 1.264-1.264 1.264s-1.264-0.566-1.264-1.264v-21.197l-8.898 8.561c-0.502 0.483-1.3 0.467-1.783-0.035s-0.467-1.3 0.035-1.783l10.971-10.556c0.231-0.257 0.566-0.418 0.939-0.418s0.708 0.162 0.939 0.418l10.971 10.556c0.502 0.483 0.517 1.281 0.035 1.783s-1.281 0.517-1.783 0.035l-8.898-8.561v21.197z"></path>
</svg>
