<svg class="icon" viewBox="0 0 1024 1024" xmlns="http://www.w3.org/2000/svg" width="32" height="32"><path d="M384.465 47.29l452.33 48.221c52.363 5.912 94.859 54.133 94.114 107.52v613.47c0 54.132-42.496 102.353-94.86 108.31L383.721 976.71l-14.43.745c-54.597 0-99.374-34.118-108.45-83.084l-62.278 7.447c-3.77.698-8.378.698-12.893.698-53.109 0-92.58-37.05-92.58-85.27V207.5c0-48.966 40.216-86.016 93.325-86.016 3.816 0 8.378 0 12.148.698l62.231 6.702c9.868-48.22 54.645-82.339 109.289-82.339 5.306 0 9.868 0 14.429.745zm-20.852 50.083c-2.234.698-4.515 0-6.749 0-19.596 0-41.425 10.194-41.425 32.722v767.162c0 21.876 21.038 32.023 39.889 32.023 2.28 0 5.26 0 7.54-.698l482.956-54.598c17.315-2.188 32.396-20.387 32.396-39.33V186.88c0-18.153-15.081-36.399-31.651-38.586l-482.956-50.92zM179.2 178.036h-5.4c-9.448 0-24.994 3.677-24.994 15.36v647.075c0 13.126 17.5 14.43 22.993 14.569h6.75l83.036-8.006V186.09l-82.385-8.053zM401.687 418.91c9.775 0 17.082 7.168 17.082 16.71V588.38c1.257 9.542-7.307 16.71-17.082 16.71h-12.241a16.524 16.524 0 0 1-17.082-16.71V435.62c0-9.542 7.307-16.71 17.082-16.71h12.241z"/></svg>