<svg class="icon" viewBox="0 0 1280 1024" xmlns="http://www.w3.org/2000/svg" width="27.5" height="22"><path d="M255.99 479.982a383.986 287.99 0 1 0 767.972 0 383.986 287.99 0 1 0-767.972 0z" fill="#FFF"/><path d="M885.343 366.002l-246.135 271.67-245.11-272.438H269.301v44.03a44.414 44.414 0 0 1 40.126 15.744v4.8c53.822 63.741 265.782 285.75 325.556 354.227 59.774-69.31 270.838-291.317 325.62-355.827a44.35 44.35 0 0 1 40.126-15.807v-50.303H892.895c.128 0-4.992 0-7.552 3.84zm360.626-67.71a125.243 125.243 0 0 1 0 171.642L952.86 764.26 735.844 979.931a122.427 122.427 0 0 1-187.96 0L335.923 771.3 34.302 470.702a121.467 121.467 0 0 1 0-169.21L173.56 159.099 288.95 43.39C311.924 16.191 347.187.192 384.562 0h512.62a130.427 130.427 0 0 1 92.413 42.558c47.806 43.903 151.226 149.563 213.624 211.768l42.75 43.967z" fill="#FFD509"/></svg>