<!-- Generated by IcoMoon.io -->
<svg version="1.1" xmlns="http://www.w3.org/2000/svg" width="32" height="32" viewBox="0 0 32 32">
<title>fujian</title>
<path d="M21.003 2.006c0.803 0 1.606 0.2 2.209 0.403 2.413 1.003 3.819 3.216 3.819 5.828 0 1.606-0.603 3.216-1.809 4.422l-11.253 11.453c-0.403 0.403-0.803 0.603-1.206 0.803s-0.803 0.2-1.406 0.2c-0.403 0-1.006 0-1.406-0.2-0.403-0.2-0.803-0.403-1.006-0.803-0.403-0.403-0.603-0.803-0.803-1.206s-0.2-1.003-0.2-1.406c0-1.006 0.403-2.009 1.006-2.613l10.25-10.65c0.2-0.2 0.603-0.403 0.803-0.403 0.403 0 0.803 0.2 1.006 0.403 0.2 0.2 0.403 0.603 0.403 0.803-0.2 0.403-0.2 0.603-0.403 1.006l-10.453 10.447c-0.2 0.2-0.403 0.603-0.403 1.006 0 0.603 0.603 1.206 1.206 1.206 0.403 0 0.603-0.2 0.803-0.403l11.253-11.453c0.803-0.803 1.003-1.606 1.003-2.613s-0.403-1.809-1.003-2.612c-0.603-0.803-1.406-1.206-2.413-1.206s-2.009 0.403-2.613 1.206l-11.25 11.453c-0.603 0.603-1.006 1.206-1.406 2.009-0.603 1.406-0.603 3.216 0 4.622 0.403 0.803 0.803 1.406 1.406 2.009 1.206 1.206 2.613 1.809 4.219 1.809s3.216-0.603 4.219-1.809l11.456-11.253c0.2-0.403 0.403-0.403 0.803-0.403 0.403 0 0.603 0.2 0.803 0.403 0.2 0.2 0.403 0.403 0.403 0.803s-0.2 0.603-0.403 0.803l-11.253 11.456c-0.803 0.803-1.809 1.406-2.813 2.009-1.006 0.403-2.009 0.603-3.216 0.603s-2.209-0.2-3.216-0.603-2.009-1.006-2.813-2.009c-0.803-0.803-1.406-1.809-1.809-2.813-0.4-1.006-0.6-2.212-0.6-3.216 0-1.206 0.2-2.209 0.603-3.416 0.403-1.006 1.006-2.009 1.809-2.813l11.253-11.453c1.203-1.209 2.809-1.813 4.419-1.813zM21.003 2.006"></path>
</svg>
