<!-- Generated by IcoMoon.io -->
<svg version="1.1" xmlns="http://www.w3.org/2000/svg" width="32" height="32" viewBox="0 0 32 32">
<title>fenxiang</title>
<path d="M15.975 29.050c7.2 0 13.050-5.85 13.050-13.050 0-0.5-0.375-0.875-0.875-0.875s-0.875 0.375-0.875 0.875c0 6.225-5.050 11.275-11.275 11.275s-11.275-5.050-11.275-11.275 5.050-11.275 11.275-11.275c0.5 0 0.875-0.375 0.875-0.875s-0.375-0.875-0.875-0.875c-7.175 0-13.025 5.85-13.025 13.025 0 7.2 5.825 13.050 13 13.050zM21.725 8.95c-5.025 0-7.175 2.575-7.175 8.65v0.125c0.050 0.45 0.45 0.825 0.925 0.8 0.45-0.050 0.825-0.45 0.8-0.925 0-5.125 1.425-6.925 5.475-6.925h2.025l-0.75 0.75c-0.325 0.35-0.325 0.9 0 1.225 0.35 0.325 0.9 0.325 1.225 0l1.95-1.95c0.475-0.5 0.475-1.3 0-1.775l-1.95-1.95c-0.3-0.275-0.8-0.275-1.125 0-0.35 0.325-0.4 0.85-0.075 1.225l0.675 0.75h-2z"></path>
</svg>
